<?xml version="1.0" encoding="UTF-8" standalone="no"?>
<svg
   xmlns:dc="http://purl.org/dc/elements/1.1/"
   xmlns:cc="http://creativecommons.org/ns#"
   xmlns:rdf="http://www.w3.org/1999/02/22-rdf-syntax-ns#"
   xmlns:svg="http://www.w3.org/2000/svg"
   xmlns="http://www.w3.org/2000/svg"
   xmlns:sodipodi="http://sodipodi.sourceforge.net/DTD/sodipodi-0.dtd"
   xmlns:inkscape="http://www.inkscape.org/namespaces/inkscape"
   width="4096"
   height="4096"
   viewBox="0 0 4096 4096"
   version="1.1"
   id="svg28"
   sodipodi:docname="itau-bba-logo.svg"
   inkscape:version="0.92.4 (5da689c313, 2019-01-14)">
  <metadata
     id="metadata34">
    <rdf:RDF>
      <cc:Work
         rdf:about="">
        <dc:format>image/svg+xml</dc:format>
        <dc:type
           rdf:resource="http://purl.org/dc/dcmitype/StillImage" />
        <dc:title>ibba-02</dc:title>
      </cc:Work>
    </rdf:RDF>
  </metadata>
  <defs
     id="defs32" />
  <sodipodi:namedview
     pagecolor="#ffffff"
     bordercolor="#666666"
     borderopacity="1"
     objecttolerance="10"
     gridtolerance="10"
     guidetolerance="10"
     inkscape:pageopacity="0"
     inkscape:pageshadow="2"
     inkscape:window-width="1600"
     inkscape:window-height="837"
     id="namedview30"
     showgrid="false"
     inkscape:zoom="0.10334158"
     inkscape:cx="656.13108"
     inkscape:cy="1906.2359"
     inkscape:window-x="-8"
     inkscape:window-y="-8"
     inkscape:window-maximized="1"
     inkscape:current-layer="svg28" />
  <!-- Generator: Sketch 55.1 (78136) - https://sketchapp.com -->
  <title
     id="title2">ibba-02</title>
  <desc
     id="desc4">Created with Sketch.</desc>
  <g
     id="Chassi-IBBA"
     style="fill:none;fill-rule:evenodd;stroke:none;stroke-width:1"
     transform="matrix(30.409416,0,0,30.409416,512.32449,1272.5599)">
    <g
       id="Header-1440"
       transform="translate(-164,-66)">
      <g
         id="header_PF-Copy">
        <g
           id="topbar/menu/1200px"
           transform="translate(0,40)">
          <g
             id="ajuda"
             transform="translate(164,26)">
            <g
               id="ibba-02">
              <path
                 d="m 58.81746,34.490797 h 1.444445 c 2.063492,0 3.611111,0.625767 3.611111,2.294479 0,1.773006 -1.650794,2.398773 -3.404762,2.398773 -0.722222,0 -1.238095,0 -1.650794,-0.104294 z m 0,-6.466257 c 0.309524,-0.104295 0.825397,-0.104295 1.857143,-0.104295 1.857143,0 2.888889,0.521473 2.888889,1.877301 0,1.147239 -1.031746,1.981595 -3.301587,1.981595 h -1.34127 V 28.02454 Z M 55,41.791411 C 55.825397,41.895705 57.269841,42 59.333333,42 62.738095,42 64.904762,41.478528 66.142857,40.539877 67.277778,39.705522 68,38.453988 68,36.889571 68,34.699387 66.452381,33.239264 64.595238,32.822086 v -0.104295 c 1.960318,-0.730061 2.785714,-2.085889 2.785714,-3.546012 0,-1.668712 -0.928571,-2.815951 -2.166666,-3.337423 C 63.976191,25.208589 62.634921,25 60.15873,25 58.198413,25 55.928571,25.208589 55,25.417178 Z"
                 id="Shape"
                 inkscape:connector-curvature="0"
                 style="fill:#004388;fill-rule:nonzero" />
              <path
                 d="m 73.920635,34.386503 h 1.444444 c 2.063492,0 3.611112,0.625767 3.611112,2.294479 0,1.773006 -1.650794,2.398773 -3.404762,2.398773 -0.722223,0 -1.238096,0 -1.650794,-0.104295 z m 0,-6.466258 c 0.309524,-0.104294 0.825397,-0.104294 1.857143,-0.104294 1.753968,0 2.888889,0.521472 2.888889,1.8773 0,1.14724 -1.031746,1.981596 -3.301588,1.981596 h -1.34127 V 27.920245 Z M 70,41.687117 C 70.825397,41.791411 72.373016,42 74.333333,42 77.738095,42 79.904762,41.478528 81.142857,40.539877 82.277778,39.705522 83,38.453988 83,36.889571 83,34.699387 81.452381,33.239264 79.595238,32.822086 v -0.104295 c 1.960318,-0.730061 2.785714,-2.085889 2.785714,-3.546012 0,-1.668712 -0.928571,-2.815951 -2.166666,-3.337423 C 78.976191,25.208589 77.634921,25 75.15873,25 73.198413,25 70.928571,25.208589 70,25.417178 Z"
                 id="path7"
                 inkscape:connector-curvature="0"
                 style="fill:#004388;fill-rule:nonzero" />
              <path
                 d="m 90.201258,34.515723 1.1761,-3.63522 c 0.320755,-0.962264 0.534592,-2.138365 0.855346,-3.100629 v 0 c 0.320755,0.962264 0.64151,2.031447 0.962265,3.100629 l 1.1761,3.63522 z M 95.012579,37.509434 96.509434,42 H 101 L 95.012579,25 H 89.666667 L 84,42 h 4.27673 l 1.389937,-4.490566 z"
                 id="path9"
                 inkscape:connector-curvature="0"
                 style="fill:#004388;fill-rule:nonzero" />
              <path
                 d="M 8.5355649,0 H 42.464435 C 47.158996,0 51,3.8329854 51,8.5177453 V 42.482255 C 51,47.167015 47.158996,51 42.464435,51 H 8.5355649 C 3.8410042,51 0,47.167015 0,42.482255 V 8.5177453 C 0,3.8329854 3.8410042,0 8.5355649,0"
                 id="Path"
                 inkscape:connector-curvature="0"
                 style="fill:#004388" />
              <rect
                 id="Rectangle"
                 x="4"
                 y="25"
                 width="4"
                 height="17"
                 style="fill:#faea27" />
              <g
                 id="Group"
                 transform="translate(9,25)"
                 style="fill:#faea27">
                <path
                   d="m 18.891429,12.105263 c 0,0.210526 0,0.421053 -0.108572,0.631579 0,0 0,0.105263 0,0.105263 0,0 0,0 0,0.105263 C 18.457143,13.789474 17.48,14.526316 16.285714,14.526316 15.2,14.526316 14.44,14 14.44,12.947368 c 0,-1.157894 1.085714,-1.789473 2.605714,-2 0.325715,-0.105263 0.76,-0.105263 1.194286,-0.105263 0.217143,0 0.542857,0 0.76,0 v 1.263158 z m -2.28,-8.3157893 c -2.497143,0 -4.342858,0.6315789 -5.32,1.1578947 l 0.76,2.5263158 C 12.92,6.9473684 14.548571,6.4210526 15.96,6.4210526 c 2.388571,0 2.822857,1.1578948 2.822857,1.7894737 v 0.1052632 c -5.211428,0 -8.468571,1.5789473 -8.468571,4.8421055 0,1.894737 1.52,3.894737 4.451428,3.894737 1.737143,0 3.148572,-0.631579 4.017143,-1.578948 v 0 l 0.434286,1.263158 h 3.257143 V 9.2631579 C 22.582857,6.3157895 21.062857,3.7894737 16.611429,3.7894737 Z"
                   id="path13"
                   inkscape:connector-curvature="0"
                   style="fill-rule:nonzero" />
                <path
                   d="m 33.765714,4.2105263 v 7.3684207 c 0,0.31579 0,0.526316 -0.108571,0.842106 C 33.331429,13.157895 32.571429,14 31.268571,14 29.64,14 28.88,12.842105 28.88,10.842105 V 4.2105263 h -3.908571 v 7.3684207 c 0,0.947369 0.108571,1.789474 0.325714,2.526316 0.217143,0.736842 0.542857,1.263158 0.977143,1.684211 0.434285,0.421052 0.977143,0.736842 1.52,0.947368 0.542857,0.210526 1.194285,0.31579 1.954285,0.31579 0.651429,0 1.194286,-0.105264 1.628572,-0.210527 0.434286,-0.105263 0.868571,-0.315789 1.194286,-0.526316 0.325714,-0.210526 0.651428,-0.421052 0.868571,-0.631578 0.217143,-0.210527 0.434286,-0.421053 0.542857,-0.631579 l 0.542857,1.789473 h 3.148572 V 4.2105263 Z"
                   id="path15"
                   inkscape:connector-curvature="0" />
                <path
                   d="M 2.3885714,0 V 4.2105263 H 0.54285714 V 7.0526316 H 2.3885714 v 5.1578944 c 0,1.684211 0.3257143,2.947369 1.0857143,3.789474 0.6514286,0.631579 1.7371429,1.157895 3.1485714,1.157895 1.1942858,0 1.6285715,-0.210527 2.1714286,-0.421053 v -2.947368 c -0.1085714,0 -0.4342857,0.105263 -0.8685714,0.105263 -1.4114286,0 -1.7371429,-0.842105 -1.7371429,-2.421053 V 7.0526316 H 8.6857143 V 4.2105263 H 6.1885714 V 0 Z"
                   id="path17"
                   inkscape:connector-curvature="0" />
              </g>
              <polygon
                 id="polygon20"
                 points="40.31579,25 38,29 40.736842,29 44,25 "
                 style="fill:#faea27" />
            </g>
          </g>
        </g>
      </g>
    </g>
  </g>
</svg>
